/* XPM */
static char *c27db92dc4414c93a09d653f6bd2d4c8wrn1mfg5coscHokv[] = {
/* columns rows colors chars-per-pixel */
"64 64 20 1 ",
"  c gray11",
". c #28200C",
"X c #302410",
"o c #403018",
"O c #483818",
"+ c #543C1C",
"@ c #5C4020",
"# c #6C4824",
"$ c #744C28",
"% c #80502C",
"& c #885830",
"* c #905C34",
"= c #9C6038",
"- c #A86840",
"; c #B47044",
": c #BC7848",
"> c #C87C4C",
", c #D08050",
"< c #DC8854",
"1 c #F0945C",
/* pixels */
"O++OOoX...O#O..O**&$. ..$&$@O...+.....*=%-%+*=&-=$@@++++ooOO$&@.",
"*-=**=*&&&*&+$&@#&@&@@Ooo#@@+oo#$@@&%X$$$*@#-**&%&*==**&&%$&:;&.",
"&>>><>:>:>>:$--:;=;&@&%@;>=%@#$=*=;-=@%*&**==;*&=-*<:=--===>1>$.",
"=::;::>::>>-+=*-*&-;%=#$<>%@#*->--;-:&$&%$=-;;*-;=;1>-::::>>>;+.",
"=>>:>>>::1>:+*-;*&=-;*&=>-&$&;:>;:>>>&@$$*:-====;*11<-><>;;-==@.",
"=<<>:>>>>1<-O&*=-==-;*-;-*$%*->>><11<&&=-=&&=-:;:<1>-=>1;=%%&=$.",
"&:>:*->>>11;O&%&%%%====;*&&**;>111-=>;>>:*@&*-:111>>:<1<;#O#&=&@",
"=:;-*:<>111-O&$$$&&=-:;:;:--=;>1<-@#>><>;==-*-<11;11>111=@O$--=+",
"=-&=>111111>O$##&-=-<<111<>;;>:>>*&-1-=->>>=#*11-&>11111-#%=;-%X",
"&;&;>111<11:O&>>:=->>>1>1><>;>>:>>-:<&*;>>:;*=::==>11>-=%%#@$OOX",
"$==&*;-=;>-@X@@++@+@OooOO+OO+@O+@+Oo#@@%&*&%+.@%%%%&&&$$#$@@+&=$",
"o+%&&&$OO#O..XOO@ooo.............o..X....ooo..&>>>->>>-;===&&>-.",
"@$&&*=@o$%@ooO#&>1>:&%X%*===--=-=&&$%&&&%##&-O>11111<>--&=-*;<=+",
"&=;-==$$-;*@@#%&>1--$=o=:;--;--;-;>&$@&$$=*->@111>:-&==&&=:->>=+",
"=11>>;;;1<%O#%==>:->&%o<::;;=-;;->;=&@&&%;;->#>1;&#$%$$$*;;->==+",
"$11>>:;;<>%+$&-->:->;%X>;;===-;;:>:;&@&&$;=*:+:-%$#$$$$==-=-->-O",
"=<<:>;=:11-==>1><>>1>$o;;=*=--;-;-;=&$=&+&&&=O-=&%%&&%&=%&=;;;=O",
"$:>><-->11,:<1<:>111<$O;<;%*-;>>>1>-=&-&#%%$&O&*=&-===&*=-:>:-=O",
";-==$@&&&&&*-::;>11<=%O-;&%========&%%%&*-&$%+%=-=-=&&$&=;--=--.",
"ooO+o@+++@@@#####$#$@@..+.......XoXOX.X#@+oX..++@##o..++@&&@O+X.",
"..oXO#*;->>;;===-;;:>%OX%O**&%%%%#+ooO#++OoooO+..OOOXo-;;>&$X...",
".+&&:;1:;-1111<>--&=-*&+>*&:;--;--*%%*&&*&#%$&*@$==>&+>11<>$+X..",
"o+%:::;--=1>:-&==&&=:-;+--=::;;=-;&$*-&%%#++&$=>;:11;+->>:>&++o.",
".+*::>>:;&;&#$%$$$*;;--+=;>;;===-;&=&;%$##+#&&=>>>11-+=:-;>>$oo.",
".+->11<-=&%$#$$$$==-=-=+*=;;=*=--;%*&=&$@#$=-*%:<<>1=+**&:1<&oo.",
".@;111<-&&&%%&&%&=%&=;-@&;>:*&-:;-$$&;&$#+&;-*=;<1>1-@&*=;1>&+o.",
".+>11>>=%*=&-===&*=-:>=+&-:-&*;-=%##&-&&&&=:=&#:<>>1=+&-==;--$+.",
".+>1<:;--;*$&---+&*-;;-+&-;;==-=&%#$*-*-;:;-*$#>>->1-+&;-&%&;&$o",
".+>>:-:;-*$#%&&=%*=;><-+&&&:;---=&$$&&&:;---=&$;:->1-+&>;**--=&o",
".@:----=*#@O$%&--=-<<<-O==;:==->--%@&=;:==->--%-;->1-O=>;==-&=&+",
".&::;;;=*$#O#==;<--<<<*O=%==&&####O@%&$#$&=->,=;:::1*O=>;**==&$.",
".&-;;:>=*%&@$;;&>--<<<*.%&===$#%&$#$&=&&*--;:>;>,-=>*.%:*$&==-&o",
".-;:-><-===&=-=&<::1<<&.$&;-=$=-=->>;<<>>>>1><<1<:;1&.$=%$=:::<$",
"+%>>>>;-:;-&%$&&;>,1:<%.@-:;==>1>11>>11<>>>1<11<1<>>%.@%&$=>>:;&",
"OO&-==*==-*#@%&*:<1>>>O..%&=->;-==$@&&&&&*===--=-=&&O..+$##%@OXX",
"oo@@@@O+++OX..O@&==&&&Oo..O++@+oO+o@%&&%$%&$%&&&*&X....ooO......",
"++#$###+@$#o.@===&**-&#@@#*&$$$$@$$*>>;----=-:;>>;o..o#&#....XO+",
"%$&&#$%@+@#X.%:::;--=&$#$&&%@&$==&%;1:;--;--;-;>--o.O@*=@..O+#%&",
"=--=&&&$@@#Oo*::>>:;&%$@%$&$@&$$=*-><::;;=-;;->;=-++$#&=O.o%%%-=",
"&===**&##@$#+->11<-=&=%#%&=&@&&%;;->>;;===-;;:>:::@#@+&$X.+&@$--",
"&*=&&&$$#$$++;111<-&&&$@&-;&@&&$;=*:;;=*=--;-;-;>&o+.O%+o@@$$&-;",
"$$&&&&+ooO$O+>11>>=%*&$#*-=&$=&+&&&=>:*&-:;-=-&=-#.X.@%+++@%&%$$",
"%$&#$#O..X$O@>1<:;--;*$&---=&-&#%%$&:-&*;-=%&&%==@.O+$#@+o@&;**$",
"*-&++#OoooO.@>>:-:;-*$#%&&=*&;&#%$&-;;%=-=&%%%&-;@.+#$#+O+$&-*%*",
"==%++@OOoXX.#:----=*#@O$%&-=&-%%*&&---*-&*%$%$*->%.@#@@o@&#&&===",
"&*$+@OOOOOO.#::;;;=*$#O#==;=&&*&=*=&%%=;&&&%%&;;>$.#+O++%&%-;>;;",
"$%$%$@##++@o+-;;:>=*%&@$;;&&&=;=&&=&%&-;-=&%=:>;>%X$#@@$=&-><>-$",
"$%%%####++#X+;:-><-===&=-=&&->;=-*=&==&;:=*&=--=;#O$$#$&-;>1>---",
"--%%#@#%&%$#%>>>>;-:;-&%$&&=-;;;;----=-::;---*=&&OO%%&&&=->>&#$=",
":;=&&%*=-*&:->1<-=,1;&@@%-=%&=:::--=-=--;;-;*&==$.O%#++++#&%O+#*",
"%%$###@+#$$&+@OoO;1>$..+%=@ooO&--%OOooXXOX.oOO%%Oo+++@@@#@@&%@.+",
"..+#$&#@#+O+X...X&*#O...OO...oO@@OOXX.Xo...O$%--%&%%&=-=:>;@#@..",
"@#&--:;=;&#@oo..+&#&=X#>;;-%#&%*&&%$##%&$+.$;;>;;-%%;>:=;:%*>1@#",
"*%%=*-*&-;-&#@OO&;;>-o@;;;*%&**&&*&#%$&*$&O*>>;;;*%&;>;*-&$=11>>",
"&$#*-;*&=-=%%&=;1><<$.@-;>====-&%%#++#$&%*+=>>-;>==-:>;-*%&-11>-",
"&#$&*=-==-&&=->11<11*O%;<>===;;%$##+#&&&#$O@==;<>==:-;--$$=:11>-",
"$$%&%&%%%=---;><<11<=+$>:&%;->=&$@#$=-*%$&.O==>:&%;;--;*+@=:11-#",
"#@%&$$$&&==;;;>111<:@O%>-@$::,;&$#+&;-*$&-XO-=>-@$:>=*;&+@&-:>&#",
"+#$$##&-=-=;;=>11<>-O.#-&%*->>-&&&&=:=&#=>O$>--&%*--*&-&@+%&*=&$",
"@#$$@$-===---;>>:--*OX$=%$%*-;-*-;:;-*$#=>+&<-=%$%*-&%&$+O%--=;-",
"$%$#$%&&--==&:1<;:>=$O$=&%#$*=&&:;---=&$=>@$:-=&%#$=-*#$&%>1;;11",
">&&-;-&==&&&&-:;-;;*&.&=%&&$=-=;:==->--%-1$O-:=%&&$=>;=-><1111-<",
"1>;<>;*-&$&&&->>--=@$.$-=-&&->>>>=:;;--=>1$O>>-=-&&>1111<1<1<111",
"11<>>*#*&%===>1>:>-#O.$**%$-=>><1;>>>>:>11%O;-**%$-1111<-<11>:11"
};
